# xmcd
#
# Track frame offsets:
#	150
#	17873
#	33923
#	48173
#	63248
#	77423
#	99233
#	114916
#	129241
#	144616
#	160666
#	174016
#
# Disc length: 2490 seconds
#
# Revision: 0
# Processed by: cddbd v1.5.2PL0 Copyright (c) Steve Scherf et al.
# Submitted via: audiograbber 1.83.01
#
DISCID=8009b80c
DTITLE=The Osborne Brothers - When The Roses Bloom In Dixieland
DYEAR=1994
DGENRE=Bluegrass
TTITLE0=Sweet Sunny South
TTITLE1=Lorena
TTITLE2=Shiloh Hill
TTITLE3=Amazing Grace
TTITLE4=When The Roses Bloom In Dixieland
TTITLE5=Ashokan Farewell
TTITLE6=Damn Yankee Lad
TTITLE7=The Last Time
TTITLE8=The Waltz You Saved For Me
TTITLE9=Farther Along
TTITLE10=When I Swim The Golden River
TTITLE11=America The Beautiful
EXTD=
EXTT0=
EXTT1=
EXTT2=
EXTT3=
EXTT4=
EXTT5=
EXTT6=
EXTT7=
EXTT8=
EXTT9=
EXTT10=
EXTT11=
PLAYORDER=
